<svg width="24" height="24" viewBox="0 0 24 24" fill="none" xmlns="http://www.w3.org/2000/svg">
<path fill-rule="evenodd" clip-rule="evenodd" d="M14.5 7.50008L12 10.0001L9.50001 7.50008C9.22387 7.22393 8.77616 7.22393 8.50001 7.50008C8.22387 7.77622 8.22387 8.22393 8.50001 8.50008L11.2929 11.293C11.6834 11.6835 12.3166 11.6835 12.7071 11.293L15.5 8.50008C15.7762 8.22393 15.7762 7.77622 15.5 7.50008C15.2239 7.22393 14.7762 7.22393 14.5 7.50008ZM14.5 13.5001L12 16.0001L9.50001 13.5001C9.22387 13.2239 8.77616 13.2239 8.50001 13.5001C8.22387 13.7762 8.22387 14.2239 8.50001 14.5001L11.2929 17.293C11.6834 17.6835 12.3166 17.6835 12.7071 17.293L15.5 14.5001C15.7762 14.2239 15.7762 13.7762 15.5 13.5001C15.2239 13.2239 14.7762 13.2239 14.5 13.5001Z" fill="#41F6D7"/>
</svg>
