<svg width="98" height="52" viewBox="0 0 98 52" fill="none" xmlns="http://www.w3.org/2000/svg">
<path fill-rule="evenodd" clip-rule="evenodd" d="M36.5704 0.592529C36.0181 0.592529 35.5704 1.04024 35.5704 1.59253V5.86748C35.5704 6.41977 36.0181 6.86748 36.5704 6.86748H72.8973C83.0243 6.86748 90.9778 14.6641 90.9778 24.757V24.757C90.9778 25.0425 91.2093 25.274 91.4948 25.274H96.757C97.0426 25.274 97.2741 25.0425 97.2741 24.757V24.757C97.2741 11.2677 86.4321 0.592529 72.8973 0.592529H36.5704Z" fill="#6B7B84" stroke="#80949F" stroke-width="0.5"/>
<path fill-rule="evenodd" clip-rule="evenodd" d="M7.10667 25.7122V25.7122C7.10667 25.4702 6.91044 25.2739 6.66838 25.2739H1.16421C0.922151 25.2739 0.725922 25.4702 0.725922 25.7122V25.7122C0.725922 39.3616 10.9492 50.6311 24.1686 51.3686L66.5102 51.4064C67.0628 51.4069 67.5111 50.959 67.5111 50.4064V45.8267C67.5111 45.2745 67.0634 44.8267 66.5111 44.8267H25.6264C15.3902 44.7984 7.10667 36.283 7.10667 25.7122Z" fill="#6B7B84" stroke="#80949F" stroke-width="0.5"/>
<path fill-rule="evenodd" clip-rule="evenodd" d="M28.1414 39.7924C30.8802 39.7924 33.1616 39.2603 35.4148 38.1655L35.5704 38.0199V30.1855L34.7272 31.2649C33.1048 33.0378 30.9258 34.0137 28.4607 34.0137C23.8691 34.0137 19.2574 31.0459 19.2574 25.3738C19.2574 21.0874 22.438 16.532 28.2992 16.532C29.4687 16.532 32.3129 16.8085 34.7231 19.368L35.5704 20.4117V12.6127L35.4217 12.4653C33.1257 11.3147 30.7842 10.7554 28.1136 10.7554C23.5466 10.7554 19.982 11.9577 17.1437 14.4289C15.3434 15.9777 12.3407 19.4485 12.3407 25.2923C12.3407 29.6131 13.8792 32.9875 17.1668 35.9144C20.2251 38.5962 23.6162 39.7924 28.1414 39.7924" fill="#6B7B84"/>
<path d="M28.1414 39.7924C30.8802 39.7924 33.1616 39.2603 35.4148 38.1655L35.5704 38.0199V30.1855L34.7272 31.2649C33.1048 33.0378 30.9258 34.0137 28.4607 34.0137C23.8691 34.0137 19.2574 31.0459 19.2574 25.3738C19.2574 21.0874 22.438 16.532 28.2992 16.532C29.4687 16.532 32.3129 16.8085 34.7231 19.368L35.5704 20.4117V12.6127L35.4217 12.4653C33.1257 11.3147 30.7842 10.7554 28.1136 10.7554C23.5466 10.7554 19.982 11.9577 17.1437 14.4289C15.3434 15.9777 12.3407 19.4485 12.3407 25.2923C12.3407 29.6131 13.8792 32.9875 17.1668 35.9144C20.2251 38.5962 23.6162 39.7924 28.1414 39.7924" stroke="#80949F" stroke-width="0.5"/>
<path fill-rule="evenodd" clip-rule="evenodd" d="M47.9111 17.2887H49.2754C50.5269 17.2887 51.9533 17.357 53.0328 18.0928C53.56 18.4694 54.4444 19.3411 54.4444 20.9244C54.4444 22.0945 53.9274 23.1436 53.0733 23.7982C51.9783 24.5931 50.6768 24.5475 49.6309 24.5475H47.9111V17.2887ZM50.9768 29.8179C54.2082 29.8179 56.7376 28.8858 58.4941 27.1298C60.6548 24.9735 60.9778 22.0073 60.9778 20.4435C60.9778 18.7703 60.5811 15.5066 57.921 13.1435C55.7406 11.2328 53.4141 10.7554 50.1323 10.7554H41.3778V39.7924H48.0364V29.8179H50.9768V29.8179Z" fill="#6B7B84"/>
<path d="M47.9111 17.2887V17.0387H47.6611V17.2887H47.9111ZM53.0328 18.0928L53.1782 17.8894L53.1736 17.8863L53.0328 18.0928ZM53.0733 23.7982L53.2202 24.0006L53.2254 23.9967L53.0733 23.7982ZM47.9111 24.5475H47.6611V24.7975H47.9111V24.5475ZM58.4941 27.1298L58.3175 26.9529L58.3174 26.953L58.4941 27.1298ZM57.921 13.1435L58.0871 12.9566L58.0858 12.9555L57.921 13.1435ZM41.3778 10.7554V10.5054H41.1278V10.7554H41.3778ZM41.3778 39.7924H41.1278V40.0424H41.3778V39.7924ZM48.0364 39.7924V40.0424H48.2864V39.7924H48.0364ZM48.0364 29.8179V29.5679H47.7864V29.8179H48.0364ZM47.9111 17.5387H49.2754V17.0387H47.9111V17.5387ZM49.2754 17.5387C50.5326 17.5387 51.8838 17.6122 52.892 18.2994L53.1736 17.8863C52.0227 17.1018 50.5212 17.0387 49.2754 17.0387V17.5387ZM52.8875 18.2963C53.3751 18.6446 54.1944 19.4494 54.1944 20.9244H54.6944C54.6944 19.2328 53.7448 18.2942 53.1781 17.8894L52.8875 18.2963ZM54.1944 20.9244C54.1944 22.0204 53.7107 22.9947 52.9212 23.5998L53.2254 23.9967C54.1441 23.2925 54.6944 22.1686 54.6944 20.9244H54.1944ZM52.9265 23.5959C51.9091 24.3344 50.6971 24.2975 49.6309 24.2975V24.7975C50.6564 24.7975 52.0475 24.8518 53.2202 24.0006L52.9265 23.5959ZM49.6309 24.2975H47.9111V24.7975H49.6309V24.2975ZM48.1611 24.5475V17.2887H47.6611V24.5475H48.1611ZM50.9768 30.0679C54.2567 30.0679 56.8562 29.1207 58.6709 27.3066L58.3174 26.953C56.619 28.6509 54.1597 29.5679 50.9768 29.5679V30.0679ZM58.6707 27.3068C60.9028 25.0793 61.2278 22.0287 61.2278 20.4435H60.7278C60.7278 21.9859 60.4069 24.8678 58.3175 26.9529L58.6707 27.3068ZM61.2278 20.4435C61.2278 18.7422 60.8261 15.3898 58.0871 12.9566L57.755 13.3304C60.3362 15.6233 60.7278 18.7983 60.7278 20.4435H61.2278ZM58.0858 12.9555C55.8398 10.9874 53.4416 10.5054 50.1323 10.5054V11.0054C53.3865 11.0054 55.6413 11.4782 57.7563 13.3315L58.0858 12.9555ZM50.1323 10.5054H41.3778V11.0054H50.1323V10.5054ZM41.1278 10.7554V39.7924H41.6278V10.7554H41.1278ZM41.3778 40.0424H48.0364V39.5424H41.3778V40.0424ZM48.2864 39.7924V29.8179H47.7864V39.7924H48.2864ZM48.0364 30.0679H50.9768V29.5679H48.0364V30.0679Z" fill="#80949F"/>
<path fill-rule="evenodd" clip-rule="evenodd" d="M80.9528 24.4687C79.5051 23.1861 77.4844 22.4425 75.1908 21.6713C73.5567 21.1027 72.6563 20.7894 72.056 20.2421C71.5822 19.8399 71.371 19.4033 71.371 18.8262C71.371 17.5622 72.2299 16.2113 74.6412 16.2113C76.2799 16.2113 77.6519 16.912 78.7195 18.293L79.1433 18.8414L82.6595 14.3656L82.339 14.0445C80.1884 11.8924 77.3546 10.7554 74.1437 10.7554C67.6654 10.7554 64.7656 14.9699 64.7656 19.1468C64.7656 21.3882 65.5649 23.196 67.1365 24.5175C68.5435 25.7234 70.2593 26.3991 71.9052 26.9507L72.0912 27.0123C73.5528 27.4954 75.0644 27.9954 75.9672 28.8034C76.5953 29.3805 76.8752 30.0076 76.8752 30.8367C76.8752 32.7368 75.3788 34.0137 73.1518 34.0137C71.3914 34.0137 69.0733 33.1508 67.8469 30.7296L67.5261 30.0953L63.1555 34.1411L63.4133 34.5056C64.8077 36.4801 67.9543 39.7924 73.3592 39.7924C79.3189 39.7924 83.4815 35.9608 83.4815 30.4751C83.4815 27.3374 82.1049 25.4752 80.9528 24.4687" fill="#6B7B84"/>
<path d="M80.9528 24.4687C79.5051 23.1861 77.4844 22.4425 75.1908 21.6713C73.5567 21.1027 72.6563 20.7894 72.056 20.2421C71.5822 19.8399 71.371 19.4033 71.371 18.8262C71.371 17.5622 72.2299 16.2113 74.6412 16.2113C76.2799 16.2113 77.6519 16.912 78.7195 18.293L79.1433 18.8414L82.6595 14.3656L82.339 14.0445C80.1884 11.8924 77.3546 10.7554 74.1437 10.7554C67.6654 10.7554 64.7656 14.9699 64.7656 19.1468C64.7656 21.3882 65.5649 23.196 67.1365 24.5175C68.5435 25.7234 70.2593 26.3991 71.9052 26.9507L72.0912 27.0123C73.5528 27.4954 75.0644 27.9954 75.9672 28.8034C76.5953 29.3805 76.8752 30.0076 76.8752 30.8367C76.8752 32.7368 75.3788 34.0137 73.1518 34.0137C71.3914 34.0137 69.0733 33.1508 67.8469 30.7296L67.5261 30.0953L63.1555 34.1411L63.4133 34.5056C64.8077 36.4801 67.9543 39.7924 73.3592 39.7924C79.3189 39.7924 83.4815 35.9608 83.4815 30.4751C83.4815 27.3374 82.1049 25.4752 80.9528 24.4687" stroke="#80949F" stroke-width="0.5"/>
</svg>
