<svg width="40" height="40" viewBox="0 0 40 40" fill="none" xmlns="http://www.w3.org/2000/svg">
<rect width="40" height="40" rx="20" fill="#FF3E79"/>
<path fill-rule="evenodd" clip-rule="evenodd" d="M13.7935 12.257C13.403 11.8665 12.7698 11.8665 12.3793 12.257L12.2571 12.3792C11.8666 12.7697 11.8666 13.4028 12.2571 13.7934L18.4636 19.9999L12.2571 26.2064C11.8666 26.5969 11.8666 27.2301 12.2571 27.6206L12.3793 27.7428C12.7698 28.1333 13.403 28.1333 13.7935 27.7428L20 21.5362L26.2065 27.7428C26.5971 28.1333 27.2302 28.1333 27.6207 27.7428L27.7429 27.6206C28.1334 27.2301 28.1334 26.5969 27.7429 26.2064L21.5364 19.9999L27.7429 13.7934C28.1334 13.4028 28.1334 12.7697 27.7429 12.3792L27.6207 12.257C27.2302 11.8665 26.5971 11.8665 26.2065 12.257L20 18.4635L13.7935 12.257Z" fill="white"/>
</svg>
